<svg xmlns="http://www.w3.org/2000/svg" xmlns:xlink="http://www.w3.org/1999/xlink" contentStyleType="text/css" height="1596px" preserveAspectRatio="none" style="width:1076px;height:1596px;background:#FFFFFF;" version="1.1" viewBox="0 0 1076 1596" width="1076px" zoomAndPan="magnify"><defs/><g><!--cluster fiat_core--><g id="cluster_fiat_core"><path d="M8.5,49.43 L71.5,49.43 A3.75,3.75 0 0 1 74,51.93 L81,71.9183 L707.5,71.9183 A2.5,2.5 0 0 1 710,74.4183 L710,1586.77 A2.5,2.5 0 0 1 707.5,1589.27 L8.5,1589.27 A2.5,2.5 0 0 1 6,1586.77 L6,51.93 A2.5,2.5 0 0 1 8.5,49.43 " fill="none" style="stroke:#000000;stroke-width:1.5;"/><line style="stroke:#000000;stroke-width:1.5;" x1="6" x2="81" y1="71.9183" y2="71.9183"/><text fill="#000000" font-family="sans-serif" font-size="14" font-weight="bold" lengthAdjust="spacing" textLength="62" x="10" y="64.9652">fiat_core</text></g><!--class AnyDataWithGui--><g id="elem_AnyDataWithGui"><rect codeLine="3" fill="#F1F1F1" height="138.5742" id="AnyDataWithGui" rx="2.5" ry="2.5" style="stroke:#181818;stroke-width:0.5;" width="315" x="204.5" y="1218.63"/><ellipse cx="302.75" cy="1238.9405" fill="#ADD1B2" rx="11" ry="11" style="stroke:#181818;stroke-width:1.0;"/><path d="M305.2231,1245.0836 Q304.6421,1245.3824 304.0029,1245.5319 Q303.3638,1245.6813 302.6582,1245.6813 Q300.1514,1245.6813 298.8315,1244.0294 Q297.5117,1242.3776 297.5117,1239.2565 Q297.5117,1236.1271 298.8315,1234.4752 Q300.1514,1232.8234 302.6582,1232.8234 Q303.3638,1232.8234 304.0112,1232.9728 Q304.6587,1233.1222 305.2231,1233.421 L305.2231,1236.1437 Q304.5923,1235.5626 303.9988,1235.2928 Q303.4053,1235.0231 302.7744,1235.0231 Q301.4297,1235.0231 300.7449,1236.0897 Q300.0601,1237.1564 300.0601,1239.2565 Q300.0601,1241.3483 300.7449,1242.4149 Q301.4297,1243.4816 302.7744,1243.4816 Q303.4053,1243.4816 303.9988,1243.2118 Q304.5923,1242.942 305.2231,1242.361 Z " fill="#000000"/><text fill="#000000" font-family="sans-serif" font-size="12" font-style="italic" lengthAdjust="spacing" textLength="68" x="344.25" y="1235.2316">«DataType»</text><text fill="#000000" font-family="sans-serif" font-size="14" lengthAdjust="spacing" textLength="110" x="323.25" y="1251.298">AnyDataWithGui</text><line style="stroke:#181818;stroke-width:0.5;" x1="205.5" x2="518.5" y1="1259.2511" y2="1259.2511"/><line style="stroke:#181818;stroke-width:1.0;" x1="205.5" x2="518.5" y1="1267.2511" y2="1267.2511"/><text fill="#000000" font-family="sans-serif" font-size="14" lengthAdjust="spacing" textLength="236" x="210.5" y="1284.7863">a class to wrap any data with a GUI</text><line style="stroke:#181818;stroke-width:1.0;" x1="205.5" x2="518.5" y1="1291.7394" y2="1291.7394"/><ellipse cx="215.5" cy="1305.4835" fill="none" rx="3" ry="3" style="stroke:#038048;stroke-width:1.0;"/><text fill="#000000" font-family="sans-serif" font-size="14" lengthAdjust="spacing" textLength="256" x="224.5" y="1309.2745">_value: DataType | Unspecified | Error</text><ellipse cx="215.5" cy="1321.9718" fill="none" rx="3" ry="3" style="stroke:#038048;stroke-width:1.0;"/><text fill="#000000" font-family="sans-serif" font-size="14" lengthAdjust="spacing" textLength="289" x="224.5" y="1325.7628">callbacks: AnyDataGuiCallbacks[DataType]</text><line style="stroke:#181818;stroke-width:1.0;" x1="205.5" x2="518.5" y1="1332.7159" y2="1332.7159"/><ellipse cx="215.5" cy="1346.4601" fill="#84BE84" rx="3" ry="3" style="stroke:#038048;stroke-width:1.0;"/><text fill="#000000" font-family="sans-serif" font-size="14" lengthAdjust="spacing" textLength="228" x="224.5" y="1350.2511">save_to_json() / load_from_json()</text></g><!--class AnyDataGuiCallbacks--><g id="elem_AnyDataGuiCallbacks"><rect codeLine="13" fill="#F1F1F1" height="147.0625" id="AnyDataGuiCallbacks" rx="2.5" ry="2.5" style="stroke:#181818;stroke-width:0.5;" width="359" x="182.5" y="1418.21"/><ellipse cx="285.25" cy="1438.5205" fill="#ADD1B2" rx="11" ry="11" style="stroke:#181818;stroke-width:1.0;"/><path d="M287.7231,1444.6636 Q287.1421,1444.9624 286.5029,1445.1119 Q285.8638,1445.2613 285.1582,1445.2613 Q282.6514,1445.2613 281.3315,1443.6094 Q280.0117,1441.9576 280.0117,1438.8365 Q280.0117,1435.7071 281.3315,1434.0552 Q282.6514,1432.4034 285.1582,1432.4034 Q285.8638,1432.4034 286.5112,1432.5528 Q287.1587,1432.7022 287.7231,1433.001 L287.7231,1435.7237 Q287.0923,1435.1426 286.4988,1434.8728 Q285.9053,1434.6031 285.2744,1434.6031 Q283.9297,1434.6031 283.2449,1435.6697 Q282.5601,1436.7364 282.5601,1438.8365 Q282.5601,1440.9283 283.2449,1441.9949 Q283.9297,1443.0616 285.2744,1443.0616 Q285.9053,1443.0616 286.4988,1442.7918 Q287.0923,1442.522 287.7231,1441.941 Z " fill="#000000"/><text fill="#000000" font-family="sans-serif" font-size="12" font-style="italic" lengthAdjust="spacing" textLength="68" x="344.25" y="1434.8116">«DataType»</text><text fill="#000000" font-family="sans-serif" font-size="14" lengthAdjust="spacing" textLength="145" x="305.75" y="1450.878">AnyDataGuiCallbacks</text><line style="stroke:#181818;stroke-width:0.5;" x1="183.5" x2="540.5" y1="1458.8311" y2="1458.8311"/><line style="stroke:#181818;stroke-width:1.0;" x1="183.5" x2="540.5" y1="1466.8311" y2="1466.8311"/><text fill="#000000" font-family="sans-serif" font-size="14" lengthAdjust="spacing" textLength="326" x="188.5" y="1484.3663">a class that stores callbacks for AnyDataWithGui</text><text fill="#000000" font-family="sans-serif" font-size="14" lengthAdjust="spacing" textLength="188" x="188.5" y="1500.8545">(most of them are optional)</text><line style="stroke:#181818;stroke-width:1.0;" x1="183.5" x2="540.5" y1="1507.8077" y2="1507.8077"/><ellipse cx="193.5" cy="1521.5518" fill="#84BE84" rx="3" ry="3" style="stroke:#038048;stroke-width:1.0;"/><text fill="#000000" font-family="sans-serif" font-size="14" lengthAdjust="spacing" textLength="325" x="202.5" y="1525.3428">edit : BoolFunction (custom widgets for edition)</text><ellipse cx="193.5" cy="1538.0401" fill="#84BE84" rx="3" ry="3" style="stroke:#038048;stroke-width:1.0;"/><text fill="#000000" font-family="sans-serif" font-size="14" lengthAdjust="spacing" textLength="333" x="202.5" y="1541.8311">present_custom: VoidFunction (for presentation)</text><ellipse cx="193.5" cy="1554.5284" fill="none" rx="3" ry="3" style="stroke:#038048;stroke-width:1.0;"/><text fill="#000000" font-family="sans-serif" font-size="14" lengthAdjust="spacing" textLength="24" x="202.5" y="1558.3194">etc.</text></g><!--class FunctionWithGui--><g id="elem_FunctionWithGui"><rect codeLine="23" fill="#F1F1F1" height="533.1836" id="FunctionWithGui" rx="2.5" ry="2.5" style="stroke:#181818;stroke-width:0.5;" width="357" x="329.5" y="441.36"/><ellipse cx="447.25" cy="457.36" fill="#ADD1B2" rx="11" ry="11" style="stroke:#181818;stroke-width:1.0;"/><path d="M449.7231,463.5031 Q449.1421,463.8019 448.5029,463.9513 Q447.8638,464.1007 447.1582,464.1007 Q444.6514,464.1007 443.3315,462.4489 Q442.0117,460.797 442.0117,457.6759 Q442.0117,454.5465 443.3315,452.8947 Q444.6514,451.2428 447.1582,451.2428 Q447.8638,451.2428 448.5112,451.3922 Q449.1587,451.5416 449.7231,451.8405 L449.7231,454.5631 Q449.0923,453.9821 448.4988,453.7123 Q447.9053,453.4425 447.2744,453.4425 Q445.9297,453.4425 445.2449,454.5092 Q444.5601,455.5758 444.5601,457.6759 Q444.5601,459.7677 445.2449,460.8344 Q445.9297,461.901 447.2744,461.901 Q447.9053,461.901 448.4988,461.6312 Q449.0923,461.3615 449.7231,460.7804 Z " fill="#000000"/><text fill="#000000" font-family="sans-serif" font-size="14" lengthAdjust="spacing" textLength="113" x="467.75" y="462.651">FunctionWithGui</text><line style="stroke:#181818;stroke-width:0.5;" x1="330.5" x2="685.5" y1="473.36" y2="473.36"/><text fill="#000000" font-family="sans-serif" font-size="14" lengthAdjust="spacing" textLength="188" x="335.5" y="490.8952">Wraps a function with a GUI</text><line style="stroke:#181818;stroke-width:1.0;" x1="330.5" x2="685.5" y1="497.8483" y2="497.8483"/><ellipse cx="340.5" cy="511.5924" fill="#84BE84" rx="3" ry="3" style="stroke:#038048;stroke-width:1.0;"/><text fill="#000000" font-family="sans-serif" font-size="14" lengthAdjust="spacing" textLength="94" x="349.5" y="515.3834">constructor(f)</text><text fill="#000000" font-family="sans-serif" font-size="14" lengthAdjust="spacing" textLength="331" x="349.5" y="531.8717">(will fill _inputs_with_gui and _outputs_with_gui,</text><text fill="#000000" font-family="sans-serif" font-size="14" lengthAdjust="spacing" textLength="208" x="349.5" y="548.36">attempting to guess the types)</text><ellipse cx="340.5" cy="561.0573" fill="#84BE84" rx="3" ry="3" style="stroke:#038048;stroke-width:1.0;"/><text fill="#000000" font-family="sans-serif" font-size="14" lengthAdjust="spacing" textLength="55" x="349.5" y="564.8483">invoke()</text><text fill="#000000" font-family="sans-serif" font-size="14" lengthAdjust="spacing" textLength="12" x="349.5" y="581.3366">...</text><line style="stroke:#181818;stroke-width:1.0;" x1="330.5" x2="685.5" y1="588.2897" y2="588.2897"/><ellipse cx="340.5" cy="602.0338" fill="none" rx="3" ry="3" style="stroke:#038048;stroke-width:1.0;"/><text fill="#000000" font-family="sans-serif" font-size="14" lengthAdjust="spacing" textLength="93" x="349.5" y="605.8248">name: str = &quot;&quot;</text><text fill="#000000" font-family="sans-serif" font-size="14" lengthAdjust="spacing" textLength="4" x="349.5" y="622.3131"> </text><line style="stroke:#181818;stroke-width:1.0;" x1="330.5" x2="685.5" y1="629.2662" y2="629.2662"/><text fill="#000000" font-family="sans-serif" font-size="14" font-weight="bold" lengthAdjust="spacing" textLength="113" x="349.5" y="646.8014">Linked function</text><rect fill="none" height="6" style="stroke:#C82930;stroke-width:1.0;" width="6" x="337.5" y="656.4987"/><text fill="#000000" font-family="sans-serif" font-size="14" lengthAdjust="spacing" textLength="272" x="349.5" y="663.2897">_f_impl: Callable[..., Any] | None = None</text><text fill="#000000" font-family="sans-serif" font-size="14" lengthAdjust="spacing" textLength="4" x="349.5" y="679.778"> </text><line style="stroke:#181818;stroke-width:1.0;" x1="330.5" x2="685.5" y1="686.7311" y2="686.7311"/><text fill="#000000" font-family="sans-serif" font-size="14" font-weight="bold" lengthAdjust="spacing" textLength="229" x="349.5" y="704.2662">Members linked to the function</text><rect fill="none" height="6" style="stroke:#C82930;stroke-width:1.0;" width="6" x="337.5" y="713.9635"/><text fill="#000000" font-family="sans-serif" font-size="14" lengthAdjust="spacing" textLength="288" x="349.5" y="720.7545">_inputs_with_gui: List[ParamWithGui[Any]]</text><rect fill="none" height="6" style="stroke:#C82930;stroke-width:1.0;" width="6" x="337.5" y="730.4518"/><text fill="#000000" font-family="sans-serif" font-size="14" lengthAdjust="spacing" textLength="303" x="349.5" y="737.2428">_outputs_with_gui: List[OutputWithGui[Any]]</text><text fill="#000000" font-family="sans-serif" font-size="14" lengthAdjust="spacing" textLength="4" x="349.5" y="753.7311"> </text><rect fill="none" height="6" style="stroke:#C82930;stroke-width:1.0;" width="6" x="337.5" y="763.4284"/><text fill="#000000" font-family="sans-serif" font-size="14" lengthAdjust="spacing" textLength="323" x="349.5" y="770.2194">_last_exception_message: Optional[str] = None</text><rect fill="none" height="6" style="stroke:#C82930;stroke-width:1.0;" width="6" x="337.5" y="779.9166"/><text fill="#000000" font-family="sans-serif" font-size="14" lengthAdjust="spacing" textLength="329" x="349.5" y="786.7077">_last_exception_traceback: Optional[str] = None</text><rect fill="none" height="6" style="stroke:#C82930;stroke-width:1.0;" width="6" x="337.5" y="796.4049"/><text fill="#000000" font-family="sans-serif" font-size="14" lengthAdjust="spacing" textLength="128" x="349.5" y="803.1959">_dirty: bool = True</text><text fill="#000000" font-family="sans-serif" font-size="14" lengthAdjust="spacing" textLength="4" x="349.5" y="819.6842"> </text><line style="stroke:#181818;stroke-width:1.0;" x1="330.5" x2="685.5" y1="826.6373" y2="826.6373"/><text fill="#000000" font-family="sans-serif" font-size="14" font-weight="bold" lengthAdjust="spacing" textLength="118" x="349.5" y="844.1725">Behavioral Flags</text><ellipse cx="340.5" cy="856.8698" fill="none" rx="3" ry="3" style="stroke:#038048;stroke-width:1.0;"/><text fill="#000000" font-family="sans-serif" font-size="14" lengthAdjust="spacing" textLength="183" x="349.5" y="860.6608">invoke_async: bool = False</text><ellipse cx="340.5" cy="873.358" fill="none" rx="3" ry="3" style="stroke:#038048;stroke-width:1.0;"/><text fill="#000000" font-family="sans-serif" font-size="14" lengthAdjust="spacing" textLength="207" x="349.5" y="877.1491">invoke_manually: bool = False</text><ellipse cx="340.5" cy="889.8463" fill="none" rx="3" ry="3" style="stroke:#038048;stroke-width:1.0;"/><text fill="#000000" font-family="sans-serif" font-size="14" lengthAdjust="spacing" textLength="228" x="349.5" y="893.6373">invoke_always_dirty: bool = False</text><text fill="#000000" font-family="sans-serif" font-size="14" lengthAdjust="spacing" textLength="4" x="349.5" y="910.1256"> </text><line style="stroke:#181818;stroke-width:1.0;" x1="330.5" x2="685.5" y1="917.0787" y2="917.0787"/><text fill="#000000" font-family="sans-serif" font-size="14" font-weight="bold" lengthAdjust="spacing" textLength="134" x="349.5" y="934.6139">Optional callbacks</text><ellipse cx="340.5" cy="947.3112" fill="none" rx="3" ry="3" style="stroke:#038048;stroke-width:1.0;"/><text fill="#000000" font-family="sans-serif" font-size="14" lengthAdjust="spacing" textLength="324" x="349.5" y="951.1022">internal_state_gui: BoolFunction | None = None</text><ellipse cx="340.5" cy="963.7995" fill="none" rx="3" ry="3" style="stroke:#038048;stroke-width:1.0;"/><text fill="#000000" font-family="sans-serif" font-size="14" lengthAdjust="spacing" textLength="293" x="349.5" y="967.5905">on_heartbeat: BoolFunction | None = None</text></g><!--class ParamWithGui--><g id="elem_ParamWithGui"><rect codeLine="60" fill="#F1F1F1" height="106.0859" id="ParamWithGui" rx="2.5" ry="2.5" style="stroke:#181818;stroke-width:0.5;" width="299" x="45.5" y="1051.55"/><ellipse cx="142.75" cy="1071.8605" fill="#ADD1B2" rx="11" ry="11" style="stroke:#181818;stroke-width:1.0;"/><path d="M145.2231,1078.0036 Q144.6421,1078.3024 144.0029,1078.4519 Q143.3638,1078.6013 142.6582,1078.6013 Q140.1514,1078.6013 138.8315,1076.9494 Q137.5117,1075.2976 137.5117,1072.1765 Q137.5117,1069.0471 138.8315,1067.3952 Q140.1514,1065.7434 142.6582,1065.7434 Q143.3638,1065.7434 144.0112,1065.8928 Q144.6587,1066.0422 145.2231,1066.341 L145.2231,1069.0637 Q144.5923,1068.4826 143.9988,1068.2128 Q143.4053,1067.9431 142.7744,1067.9431 Q141.4297,1067.9431 140.7449,1069.0097 Q140.0601,1070.0764 140.0601,1072.1765 Q140.0601,1074.2683 140.7449,1075.3349 Q141.4297,1076.4016 142.7744,1076.4016 Q143.4053,1076.4016 143.9988,1076.1318 Q144.5923,1075.862 145.2231,1075.281 Z " fill="#000000"/><text fill="#000000" font-family="sans-serif" font-size="12" font-style="italic" lengthAdjust="spacing" textLength="68" x="177.25" y="1068.1516">«DataType»</text><text fill="#000000" font-family="sans-serif" font-size="14" lengthAdjust="spacing" textLength="96" x="163.25" y="1084.218">ParamWithGui</text><line style="stroke:#181818;stroke-width:0.5;" x1="46.5" x2="343.5" y1="1092.1711" y2="1092.1711"/><text fill="#000000" font-family="sans-serif" font-size="14" lengthAdjust="spacing" textLength="64" x="51.5" y="1109.7063">name: str</text><text fill="#000000" font-family="sans-serif" font-size="14" lengthAdjust="spacing" textLength="287" x="51.5" y="1126.1945">data_with_gui: AnyDataWithGui[DataType]</text><text fill="#000000" font-family="sans-serif" font-size="14" lengthAdjust="spacing" textLength="256" x="51.5" y="1142.6828">default_value: DataType | Unspecified</text><line style="stroke:#181818;stroke-width:0.5;" x1="46.5" x2="343.5" y1="1149.6359" y2="1149.6359"/></g><!--class OutputWithGui--><g id="elem_OutputWithGui"><rect codeLine="66" fill="#F1F1F1" height="73.1094" id="OutputWithGui" rx="2.5" ry="2.5" style="stroke:#181818;stroke-width:0.5;" width="299" x="379.5" y="1068.04"/><ellipse cx="474.25" cy="1088.3505" fill="#ADD1B2" rx="11" ry="11" style="stroke:#181818;stroke-width:1.0;"/><path d="M476.7231,1094.4936 Q476.1421,1094.7924 475.5029,1094.9419 Q474.8638,1095.0913 474.1582,1095.0913 Q471.6514,1095.0913 470.3315,1093.4394 Q469.0117,1091.7876 469.0117,1088.6665 Q469.0117,1085.5371 470.3315,1083.8852 Q471.6514,1082.2334 474.1582,1082.2334 Q474.8638,1082.2334 475.5112,1082.3828 Q476.1587,1082.5322 476.7231,1082.831 L476.7231,1085.5537 Q476.0923,1084.9726 475.4988,1084.7028 Q474.9053,1084.4331 474.2744,1084.4331 Q472.9297,1084.4331 472.2449,1085.4997 Q471.5601,1086.5664 471.5601,1088.6665 Q471.5601,1090.7583 472.2449,1091.8249 Q472.9297,1092.8916 474.2744,1092.8916 Q474.9053,1092.8916 475.4988,1092.6218 Q476.0923,1092.352 476.7231,1091.771 Z " fill="#000000"/><text fill="#000000" font-family="sans-serif" font-size="12" font-style="italic" lengthAdjust="spacing" textLength="68" x="511.25" y="1084.6416">«DataType»</text><text fill="#000000" font-family="sans-serif" font-size="14" lengthAdjust="spacing" textLength="101" x="494.75" y="1100.708">OutputWithGui</text><line style="stroke:#181818;stroke-width:0.5;" x1="380.5" x2="677.5" y1="1108.6611" y2="1108.6611"/><text fill="#000000" font-family="sans-serif" font-size="14" lengthAdjust="spacing" textLength="287" x="385.5" y="1126.1963">data_with_gui: AnyDataWithGui[DataType]</text><line style="stroke:#181818;stroke-width:0.5;" x1="380.5" x2="677.5" y1="1133.1494" y2="1133.1494"/></g><!--class FunctionNodeLink--><g id="elem_FunctionNodeLink"><rect codeLine="78" fill="#F1F1F1" height="113.9531" id="FunctionNodeLink" rx="2.5" ry="2.5" style="stroke:#181818;stroke-width:0.5;" width="257" x="37.5" y="650.98"/><ellipse cx="99.75" cy="666.98" fill="#ADD1B2" rx="11" ry="11" style="stroke:#181818;stroke-width:1.0;"/><path d="M102.2231,673.1231 Q101.6421,673.4219 101.0029,673.5713 Q100.3638,673.7207 99.6582,673.7207 Q97.1514,673.7207 95.8315,672.0689 Q94.5117,670.417 94.5117,667.2959 Q94.5117,664.1665 95.8315,662.5147 Q97.1514,660.8628 99.6582,660.8628 Q100.3638,660.8628 101.0112,661.0122 Q101.6587,661.1616 102.2231,661.4605 L102.2231,664.1831 Q101.5923,663.6021 100.9988,663.3323 Q100.4053,663.0625 99.7744,663.0625 Q98.4297,663.0625 97.7449,664.1292 Q97.0601,665.1958 97.0601,667.2959 Q97.0601,669.3877 97.7449,670.4544 Q98.4297,671.521 99.7744,671.521 Q100.4053,671.521 100.9988,671.2512 Q101.5923,670.9815 102.2231,670.4004 Z " fill="#000000"/><text fill="#000000" font-family="sans-serif" font-size="14" lengthAdjust="spacing" textLength="124" x="120.25" y="672.271">FunctionNodeLink</text><line style="stroke:#181818;stroke-width:0.5;" x1="38.5" x2="293.5" y1="682.98" y2="682.98"/><ellipse cx="48.5" cy="696.7241" fill="none" rx="3" ry="3" style="stroke:#038048;stroke-width:1.0;"/><text fill="#000000" font-family="sans-serif" font-size="14" lengthAdjust="spacing" textLength="230" x="57.5" y="700.5152">src_function_node: FunctionNode</text><ellipse cx="48.5" cy="713.2124" fill="none" rx="3" ry="3" style="stroke:#038048;stroke-width:1.0;"/><text fill="#000000" font-family="sans-serif" font-size="14" lengthAdjust="spacing" textLength="128" x="57.5" y="717.0034">src_output_idx: int</text><ellipse cx="48.5" cy="729.7007" fill="none" rx="3" ry="3" style="stroke:#038048;stroke-width:1.0;"/><text fill="#000000" font-family="sans-serif" font-size="14" lengthAdjust="spacing" textLength="231" x="57.5" y="733.4917">dst_function_node: FunctionNode</text><ellipse cx="48.5" cy="746.189" fill="none" rx="3" ry="3" style="stroke:#038048;stroke-width:1.0;"/><text fill="#000000" font-family="sans-serif" font-size="14" lengthAdjust="spacing" textLength="135" x="57.5" y="749.98">dst_input_name: str</text><line style="stroke:#181818;stroke-width:0.5;" x1="38.5" x2="293.5" y1="756.9331" y2="756.9331"/></g><!--class FunctionNode--><g id="elem_FunctionNode"><rect codeLine="85" fill="#F1F1F1" height="97.4648" id="FunctionNode" rx="2.5" ry="2.5" style="stroke:#181818;stroke-width:0.5;" width="273" x="237.5" y="266.9"/><ellipse cx="321.75" cy="282.9" fill="#ADD1B2" rx="11" ry="11" style="stroke:#181818;stroke-width:1.0;"/><path d="M324.2231,289.0431 Q323.6421,289.3419 323.0029,289.4913 Q322.3638,289.6407 321.6582,289.6407 Q319.1514,289.6407 317.8315,287.9889 Q316.5117,286.337 316.5117,283.2159 Q316.5117,280.0865 317.8315,278.4347 Q319.1514,276.7828 321.6582,276.7828 Q322.3638,276.7828 323.0112,276.9322 Q323.6587,277.0816 324.2231,277.3805 L324.2231,280.1031 Q323.5923,279.5221 322.9988,279.2523 Q322.4053,278.9825 321.7744,278.9825 Q320.4297,278.9825 319.7449,280.0492 Q319.0601,281.1158 319.0601,283.2159 Q319.0601,285.3077 319.7449,286.3744 Q320.4297,287.441 321.7744,287.441 Q322.4053,287.441 322.9988,287.1712 Q323.5923,286.9015 324.2231,286.3204 Z " fill="#000000"/><text fill="#000000" font-family="sans-serif" font-size="14" lengthAdjust="spacing" textLength="96" x="342.25" y="288.191">FunctionNode</text><line style="stroke:#181818;stroke-width:0.5;" x1="238.5" x2="509.5" y1="298.9" y2="298.9"/><ellipse cx="248.5" cy="312.6441" fill="none" rx="3" ry="3" style="stroke:#038048;stroke-width:1.0;"/><text fill="#000000" font-family="sans-serif" font-size="14" lengthAdjust="spacing" textLength="243" x="257.5" y="316.4352">function_with_gui: FunctionWithGui</text><ellipse cx="248.5" cy="329.1324" fill="none" rx="3" ry="3" style="stroke:#038048;stroke-width:1.0;"/><text fill="#000000" font-family="sans-serif" font-size="14" lengthAdjust="spacing" textLength="247" x="257.5" y="332.9234">output_links: list[FunctionNodeLink]</text><ellipse cx="248.5" cy="345.6207" fill="none" rx="3" ry="3" style="stroke:#038048;stroke-width:1.0;"/><text fill="#000000" font-family="sans-serif" font-size="14" lengthAdjust="spacing" textLength="237" x="257.5" y="349.4117">input_links: list[FunctionNodeLink]</text><line style="stroke:#181818;stroke-width:0.5;" x1="238.5" x2="509.5" y1="356.3648" y2="356.3648"/></g><!--class FunctionsGraph--><g id="elem_FunctionsGraph"><rect codeLine="95" fill="#F1F1F1" height="97.4648" id="FunctionsGraph" rx="2.5" ry="2.5" style="stroke:#181818;stroke-width:0.5;" width="192" x="132" y="92.43"/><ellipse cx="169.95" cy="108.43" fill="#ADD1B2" rx="11" ry="11" style="stroke:#181818;stroke-width:1.0;"/><path d="M172.4231,114.5731 Q171.8421,114.8719 171.2029,115.0213 Q170.5638,115.1707 169.8582,115.1707 Q167.3514,115.1707 166.0315,113.5189 Q164.7117,111.867 164.7117,108.7459 Q164.7117,105.6165 166.0315,103.9647 Q167.3514,102.3128 169.8582,102.3128 Q170.5638,102.3128 171.2112,102.4622 Q171.8587,102.6116 172.4231,102.9105 L172.4231,105.6331 Q171.7923,105.0521 171.1988,104.7823 Q170.6053,104.5125 169.9744,104.5125 Q168.6297,104.5125 167.9449,105.5792 Q167.2601,106.6458 167.2601,108.7459 Q167.2601,110.8377 167.9449,111.9044 Q168.6297,112.971 169.9744,112.971 Q170.6053,112.971 171.1988,112.7012 Q171.7923,112.4315 172.4231,111.8504 Z " fill="#000000"/><text fill="#000000" font-family="sans-serif" font-size="14" lengthAdjust="spacing" textLength="109" x="189.05" y="113.721">FunctionsGraph</text><line style="stroke:#181818;stroke-width:0.5;" x1="133" x2="323" y1="124.43" y2="124.43"/><text fill="#000000" font-family="sans-serif" font-size="14" lengthAdjust="spacing" textLength="180" x="138" y="141.9652">A graph of FunctionNodes</text><line style="stroke:#181818;stroke-width:1.0;" x1="133" x2="323" y1="148.9183" y2="148.9183"/><ellipse cx="143" cy="162.6624" fill="none" rx="3" ry="3" style="stroke:#038048;stroke-width:1.0;"/><text fill="#000000" font-family="sans-serif" font-size="14" lengthAdjust="spacing" textLength="113" x="152" y="166.4534">functions_nodes</text><ellipse cx="143" cy="179.1507" fill="none" rx="3" ry="3" style="stroke:#038048;stroke-width:1.0;"/><text fill="#000000" font-family="sans-serif" font-size="14" lengthAdjust="spacing" textLength="152" x="152" y="182.9417">functions_nodes_links</text></g><g id="elem_GMN20"><path d="M734.5,97.89 L734.5,184.4427 L1069.5,184.4427 L1069.5,107.89 L1059.5,97.89 L734.5,97.89 " fill="#FEFFDD" style="stroke:#181818;stroke-width:0.5;"/><path d="M1059.5,97.89 L1059.5,107.89 L1069.5,107.89 L1059.5,97.89 " fill="#FEFFDD" style="stroke:#181818;stroke-width:1.0;"/><text fill="#000000" font-family="sans-serif" font-size="13" lengthAdjust="spacing" textLength="172" x="740.5" y="115.4584">This is the core of fiatlight.</text><text fill="#000000" font-family="sans-serif" font-size="13" lengthAdjust="spacing" textLength="314" x="740.5" y="130.7689">It is a set of classes that can be used to add a GUI</text><text fill="#000000" font-family="sans-serif" font-size="13" lengthAdjust="spacing" textLength="273" x="740.5" y="146.0795">to any data, function or graph of functions.</text><text fill="#000000" font-family="sans-serif" font-size="13" lengthAdjust="spacing" textLength="228" x="740.5" y="161.39">It does depend on ImGui, but not on</text><text fill="#000000" font-family="sans-serif" font-size="13" lengthAdjust="spacing" textLength="124" x="740.5" y="176.7005">imgui-node-editor.</text></g><!--reverse link AnyDataWithGui to AnyDataGuiCallbacks--><g id="link_AnyDataWithGui_AnyDataGuiCallbacks"><path codeLine="71" d="M362,1369.53 C362,1388.95 362,1398.17 362,1417.84 " fill="none" id="AnyDataWithGui-backto-AnyDataGuiCallbacks" style="stroke:#181818;stroke-width:1.0;"/><polygon fill="#181818" points="362,1357.53,358,1363.53,362,1369.53,366,1363.53,362,1357.53" style="stroke:#181818;stroke-width:1.0;"/></g><!--reverse link ParamWithGui to AnyDataWithGui--><g id="link_ParamWithGui_AnyDataWithGui"><path codeLine="72" d="M251.4288,1166.8673 C268.7688,1185.6973 280.46,1198.38 298.87,1218.38 " fill="none" id="ParamWithGui-backto-AnyDataWithGui" style="stroke:#181818;stroke-width:1.0;"/><polygon fill="#181818" points="243.3,1158.04,244.422,1165.1633,251.4288,1166.8673,250.3069,1159.7441,243.3,1158.04" style="stroke:#181818;stroke-width:1.0;"/></g><!--reverse link OutputWithGui to AnyDataWithGui--><g id="link_OutputWithGui_AnyDataWithGui"><path codeLine="73" d="M487.8791,1150.2455 C467.6291,1172.2255 449.17,1192.27 425.01,1218.5 " fill="none" id="OutputWithGui-backto-AnyDataWithGui" style="stroke:#181818;stroke-width:1.0;"/><polygon fill="#181818" points="496.01,1141.42,489.0027,1143.1225,487.8791,1150.2455,494.8864,1148.543,496.01,1141.42" style="stroke:#181818;stroke-width:1.0;"/></g><!--reverse link FunctionWithGui to ParamWithGui--><g id="link_FunctionWithGui_ParamWithGui"><path codeLine="74" d="M321.7547,962.5793 C315.9847,969.8093 317.72,967.56 312,974.55 C290.73,1000.52 265.91,1028.23 244.62,1051.29 " fill="none" id="FunctionWithGui-backto-ParamWithGui" style="stroke:#181818;stroke-width:1.0;"/><polygon fill="#181818" points="329.24,953.2,322.3709,955.3946,321.7547,962.5793,328.6238,960.3847,329.24,953.2" style="stroke:#181818;stroke-width:1.0;"/><text fill="#000000" font-family="sans-serif" font-size="13" lengthAdjust="spacing" textLength="34" x="285" y="1018.1184">many</text></g><!--reverse link FunctionWithGui to OutputWithGui--><g id="link_FunctionWithGui_OutputWithGui"><path codeLine="75" d="M522.7887,986.903 C524.7287,1023.303 525.84,1044.16 527.08,1067.55 " fill="none" id="FunctionWithGui-backto-OutputWithGui" style="stroke:#181818;stroke-width:1.0;"/><polygon fill="#181818" points="522.15,974.92,518.475,981.1244,522.7887,986.903,526.4637,980.6986,522.15,974.92" style="stroke:#181818;stroke-width:1.0;"/><text fill="#000000" font-family="sans-serif" font-size="13" lengthAdjust="spacing" textLength="63" x="525" y="1018.1184">1 or many</text></g><!--reverse link FunctionNode to FunctionWithGui--><g id="link_FunctionNode_FunctionWithGui"><path codeLine="91" d="M394.3248,375.8404 C401.5548,396.9104 406.78,412.11 416.72,441.05 " fill="none" id="FunctionNode-backto-FunctionWithGui" style="stroke:#181818;stroke-width:1.0;"/><polygon fill="#181818" points="390.43,364.49,388.5939,371.4634,394.3248,375.8404,396.1608,368.8669,390.43,364.49" style="stroke:#181818;stroke-width:1.0;"/></g><!--reverse link FunctionNode to FunctionNodeLink--><g id="link_FunctionNode_FunctionNodeLink"><path codeLine="92" d="M342.8557,375.0797 C304.3357,447.3497 237.14,573.45 196.09,650.49 " fill="none" id="FunctionNode-backto-FunctionNodeLink" style="stroke:#181818;stroke-width:1.0;"/><polygon fill="#181818" points="348.5,364.49,342.1479,367.9034,342.8557,375.0797,349.2077,371.6663,348.5,364.49" style="stroke:#181818;stroke-width:1.0;"/><text fill="#000000" font-family="sans-serif" font-size="13" lengthAdjust="spacing" textLength="44" x="330" y="407.9284">several</text></g><!--reverse link FunctionsGraph to FunctionNode--><g id="link_FunctionsGraph_FunctionNode"><path codeLine="102" d="M276.4223,199.3698 C296.5823,223.1898 313.13,242.72 333.3,266.55 " fill="none" id="FunctionsGraph-backto-FunctionNode" style="stroke:#181818;stroke-width:1.0;"/><polygon fill="#181818" points="268.67,190.21,269.4929,197.374,276.4223,199.3698,275.5994,192.2058,268.67,190.21" style="stroke:#181818;stroke-width:1.0;"/><text fill="#000000" font-family="sans-serif" font-size="13" lengthAdjust="spacing" textLength="34" x="306" y="233.4684">many</text></g><!--reverse link FunctionsGraph to FunctionNodeLink--><g id="link_FunctionsGraph_FunctionNodeLink"><path codeLine="103" d="M202.9668,201.2864 C194.1068,224.1064 189.01,240.85 184,266.9 C157.86,402.81 159.69,566.51 163,650.77 " fill="none" id="FunctionsGraph-backto-FunctionNodeLink" style="stroke:#181818;stroke-width:1.0;"/><polygon fill="#181818" points="207.31,190.1,201.4096,194.2455,202.9668,201.2864,208.8672,197.141,207.31,190.1" style="stroke:#181818;stroke-width:1.0;"/><text fill="#000000" font-family="sans-serif" font-size="13" lengthAdjust="spacing" textLength="34" x="185" y="320.6984">many</text></g><!--link fiat_core to GMN20--><g id="link_fiat_core_GMN20"><path d="M12.2819,49.0622 C12.3456,48.8716 12.4101,48.6815 12.4752,48.4919 C12.9962,46.9748 13.5622,45.4876 14.1759,44.0355 C19.0856,32.4181 27.05,23.0375 39.5,18.43 C73.11,6 649.84,9.33 684.5,18.43 C743,33.8 802.33,68.86 844.21,97.59 " fill="none" id="fiat_core-GMN20" style="stroke:#181818;stroke-width:1.0;stroke-dasharray:7.0,7.0;"/></g><!--SRC=[KypCIyufJKbLICv9B2wEJybCJ2zAp2tMJyjCB8bFpYzArIiepSq10000]--></g></svg>