<svg xmlns="http://www.w3.org/2000/svg" xmlns:xlink="http://www.w3.org/1999/xlink" contentStyleType="text/css" height="799px" preserveAspectRatio="none" style="width:1356px;height:799px;background:#FFFFFF;" version="1.1" viewBox="0 0 1356 799" width="1356px" zoomAndPan="magnify"><defs/><g><!--cluster fiat_togui--><g id="cluster_fiat_togui"><path d="M166,147.56 L237,147.56 A3.75,3.75 0 0 1 239.5,150.06 L246.5,170.0483 L961,170.0483 A2.5,2.5 0 0 1 963.5,172.5483 L963.5,790.38 A2.5,2.5 0 0 1 961,792.88 L166,792.88 A2.5,2.5 0 0 1 163.5,790.38 L163.5,150.06 A2.5,2.5 0 0 1 166,147.56 " fill="none" style="stroke:#000000;stroke-width:1.5;"/><line style="stroke:#000000;stroke-width:1.5;" x1="163.5" x2="246.5" y1="170.0483" y2="170.0483"/><text fill="#000000" font-family="sans-serif" font-size="14" font-weight="bold" lengthAdjust="spacing" textLength="70" x="167.5" y="163.0952">fiat_togui</text></g><!--cluster fiat_core--><g id="cluster_fiat_core"><path d="M998,517.42 L1061,517.42 A3.75,3.75 0 0 1 1063.5,519.92 L1070.5,539.9083 L1347,539.9083 A2.5,2.5 0 0 1 1349.5,542.4083 L1349.5,613.92 A2.5,2.5 0 0 1 1347,616.42 L998,616.42 A2.5,2.5 0 0 1 995.5,613.92 L995.5,519.92 A2.5,2.5 0 0 1 998,517.42 " fill="none" style="stroke:#000000;stroke-width:1.5;"/><line style="stroke:#000000;stroke-width:1.5;" x1="995.5" x2="1070.5" y1="539.9083" y2="539.9083"/><text fill="#000000" font-family="sans-serif" font-size="14" font-weight="bold" lengthAdjust="spacing" textLength="62" x="999.5" y="532.9552">fiat_core</text></g><!--class free_functions--><g id="elem_free_functions"><rect codeLine="4" fill="#F1F1F1" height="263.8594" id="free_functions" rx="2.5" ry="2.5" style="stroke:#181818;stroke-width:0.5;" width="426" x="206.5" y="190.56"/><ellipse cx="366.25" cy="206.56" fill="#ADD1B2" rx="11" ry="11" style="stroke:#181818;stroke-width:1.0;"/><path d="M368.7231,212.7031 Q368.1421,213.0019 367.5029,213.1513 Q366.8638,213.3007 366.1582,213.3007 Q363.6514,213.3007 362.3315,211.6489 Q361.0117,209.997 361.0117,206.8759 Q361.0117,203.7465 362.3315,202.0947 Q363.6514,200.4428 366.1582,200.4428 Q366.8638,200.4428 367.5112,200.5922 Q368.1587,200.7416 368.7231,201.0405 L368.7231,203.7631 Q368.0923,203.1821 367.4988,202.9123 Q366.9053,202.6425 366.2744,202.6425 Q364.9297,202.6425 364.2449,203.7092 Q363.5601,204.7758 363.5601,206.8759 Q363.5601,208.9677 364.2449,210.0344 Q364.9297,211.101 366.2744,211.101 Q366.9053,211.101 367.4988,210.8312 Q368.0923,210.5615 368.7231,209.9804 Z " fill="#000000"/><text fill="#000000" font-family="sans-serif" font-size="14" lengthAdjust="spacing" textLength="98" x="386.75" y="211.851">free_functions</text><line style="stroke:#181818;stroke-width:0.5;" x1="207.5" x2="631.5" y1="222.56" y2="222.56"/><line style="stroke:#181818;stroke-width:1.0;" x1="207.5" x2="631.5" y1="230.56" y2="230.56"/><ellipse cx="217.5" cy="244.3041" fill="#84BE84" rx="3" ry="3" style="stroke:#038048;stroke-width:1.0;"/><text fill="#000000" font-family="sans-serif" font-size="14" lengthAdjust="spacing" textLength="201" x="226.5" y="248.0952">register_type(type_, gui_type)</text><text fill="#000000" font-family="sans-serif" font-size="14" lengthAdjust="spacing" textLength="223" x="226.5" y="264.5834">(Stores a GUI for a type: gui_type</text><text fill="#000000" font-family="sans-serif" font-size="14" lengthAdjust="spacing" textLength="293" x="226.5" y="281.0717">can be any descendant of AnyDataWithGui)</text><line style="stroke:#181818;stroke-width:1.0;" x1="226.5" x2="236.5" y1="289.0248" y2="289.0248"/><text fill="#000000" font-family="sans-serif" font-size="14" lengthAdjust="spacing" textLength="79" x="226.5" y="307.56">Dataclasses</text><ellipse cx="217.5" cy="320.2573" fill="#84BE84" rx="3" ry="3" style="stroke:#038048;stroke-width:1.0;"/><text fill="#000000" font-family="sans-serif" font-size="14" lengthAdjust="spacing" textLength="232" x="226.5" y="324.0483">register_dataclass(dataclass_type)</text><ellipse cx="217.5" cy="336.7455" fill="#84BE84" rx="3" ry="3" style="stroke:#038048;stroke-width:1.0;"/><text fill="#000000" font-family="sans-serif" font-size="14" lengthAdjust="spacing" textLength="308" x="226.5" y="340.5366">@dataclass_with_gui_registration (decorator)</text><ellipse cx="217.5" cy="353.2338" fill="#84BE84" rx="3" ry="3" style="stroke:#038048;stroke-width:1.0;"/><text fill="#000000" font-family="sans-serif" font-size="14" lengthAdjust="spacing" textLength="341" x="226.5" y="357.0248">register_base_model(base_model_type) (Pydantic)</text><ellipse cx="217.5" cy="369.7221" fill="#84BE84" rx="3" ry="3" style="stroke:#038048;stroke-width:1.0;"/><text fill="#000000" font-family="sans-serif" font-size="14" lengthAdjust="spacing" textLength="327" x="226.5" y="373.5131">@base_model_with_gui_registration (decorator)</text><line style="stroke:#181818;stroke-width:1.0;" x1="207.5" x2="631.5" y1="380.4662" y2="380.4662"/><text fill="#000000" font-family="sans-serif" font-size="14" lengthAdjust="spacing" textLength="43" x="226.5" y="398.0014">Notes:</text><ellipse cx="217.5" cy="410.6987" fill="#000000" rx="3" ry="3" style="stroke:#000000;stroke-width:1.0;"/><text fill="#000000" font-family="sans-serif" font-size="14" lengthAdjust="spacing" textLength="400" x="226.5" y="414.4897">factories are stored in a singleton of the class GuiFactories</text><ellipse cx="217.5" cy="427.187" fill="#000000" rx="3" ry="3" style="stroke:#000000;stroke-width:1.0;"/><text fill="#000000" font-family="sans-serif" font-size="14" lengthAdjust="spacing" textLength="260" x="226.5" y="430.978">FunctionWithGui's constructor will call</text><text fill="#000000" font-family="sans-serif" font-size="14" lengthAdjust="spacing" textLength="289" x="226.5" y="447.4662">add_input_outputs_to_function_with_gui()</text></g><!--class PrimitiveWithGui--><g id="elem_PrimitiveWithGui"><rect codeLine="22" fill="#F1F1F1" height="113.4648" id="PrimitiveWithGui" rx="2.5" ry="2.5" style="stroke:#181818;stroke-width:0.5;" width="272" x="667.5" y="265.75"/><ellipse cx="743.25" cy="281.75" fill="#ADD1B2" rx="11" ry="11" style="stroke:#181818;stroke-width:1.0;"/><path d="M745.7231,287.8931 Q745.1421,288.1919 744.5029,288.3413 Q743.8638,288.4907 743.1582,288.4907 Q740.6514,288.4907 739.3315,286.8389 Q738.0117,285.187 738.0117,282.0659 Q738.0117,278.9365 739.3315,277.2847 Q740.6514,275.6328 743.1582,275.6328 Q743.8638,275.6328 744.5112,275.7822 Q745.1587,275.9316 745.7231,276.2305 L745.7231,278.9531 Q745.0923,278.3721 744.4988,278.1023 Q743.9053,277.8325 743.2744,277.8325 Q741.9297,277.8325 741.2449,278.8992 Q740.5601,279.9658 740.5601,282.0659 Q740.5601,284.1577 741.2449,285.2244 Q741.9297,286.291 743.2744,286.291 Q743.9053,286.291 744.4988,286.0212 Q745.0923,285.7515 745.7231,285.1704 Z " fill="#000000"/><text fill="#000000" font-family="sans-serif" font-size="14" lengthAdjust="spacing" textLength="112" x="763.75" y="287.041">PrimitiveWithGui</text><line style="stroke:#181818;stroke-width:0.5;" x1="668.5" x2="938.5" y1="297.75" y2="297.75"/><line style="stroke:#181818;stroke-width:1.0;" x1="668.5" x2="938.5" y1="305.75" y2="305.75"/><text fill="#000000" font-family="sans-serif" font-size="14" lengthAdjust="spacing" textLength="136" x="673.5" y="323.2852">see primitive_gui.py</text><line style="stroke:#181818;stroke-width:1.0;" x1="668.5" x2="938.5" y1="330.2383" y2="330.2383"/><text fill="#000000" font-family="sans-serif" font-size="14" lengthAdjust="spacing" textLength="24" x="687.5" y="347.7734">aka</text><ellipse cx="678.5" cy="360.4707" fill="none" rx="3" ry="3" style="stroke:#038048;stroke-width:1.0;"/><text fill="#000000" font-family="sans-serif" font-size="14" lengthAdjust="spacing" textLength="246" x="687.5" y="364.2617">IntWithGui, FloatWithGui, StrWithGui</text><line style="stroke:#181818;stroke-width:1.0;" x1="668.5" x2="938.5" y1="371.2148" y2="371.2148"/></g><!--class CompositeWithGui--><g id="elem_CompositeWithGui"><rect codeLine="31" fill="#F1F1F1" height="105.4648" id="CompositeWithGui" rx="2.5" ry="2.5" style="stroke:#181818;stroke-width:0.5;" width="340" x="349.5" y="663.42"/><ellipse cx="451.75" cy="679.42" fill="#ADD1B2" rx="11" ry="11" style="stroke:#181818;stroke-width:1.0;"/><path d="M454.2231,685.5631 Q453.6421,685.8619 453.0029,686.0113 Q452.3638,686.1607 451.6582,686.1607 Q449.1514,686.1607 447.8315,684.5089 Q446.5117,682.857 446.5117,679.7359 Q446.5117,676.6065 447.8315,674.9547 Q449.1514,673.3028 451.6582,673.3028 Q452.3638,673.3028 453.0112,673.4522 Q453.6587,673.6016 454.2231,673.9005 L454.2231,676.6231 Q453.5923,676.0421 452.9988,675.7723 Q452.4053,675.5025 451.7744,675.5025 Q450.4297,675.5025 449.7449,676.5692 Q449.0601,677.6358 449.0601,679.7359 Q449.0601,681.8277 449.7449,682.8944 Q450.4297,683.961 451.7744,683.961 Q452.4053,683.961 452.9988,683.6912 Q453.5923,683.4215 454.2231,682.8404 Z " fill="#000000"/><text fill="#000000" font-family="sans-serif" font-size="14" lengthAdjust="spacing" textLength="127" x="472.25" y="684.711">CompositeWithGui</text><line style="stroke:#181818;stroke-width:0.5;" x1="350.5" x2="688.5" y1="695.42" y2="695.42"/><line style="stroke:#181818;stroke-width:1.0;" x1="350.5" x2="688.5" y1="703.42" y2="703.42"/><text fill="#000000" font-family="sans-serif" font-size="14" lengthAdjust="spacing" textLength="147" x="355.5" y="720.9552">see composite_gui.py</text><line style="stroke:#181818;stroke-width:1.0;" x1="350.5" x2="688.5" y1="727.9083" y2="727.9083"/><text fill="#000000" font-family="sans-serif" font-size="14" lengthAdjust="spacing" textLength="24" x="355.5" y="745.4434">aka</text><text fill="#000000" font-family="sans-serif" font-size="14" lengthAdjust="spacing" textLength="328" x="355.5" y="761.9317">OptionalWithGui, ListWithGui, EnumWithGui, etc.</text></g><!--class AnyDataWithGui--><g id="elem_AnyDataWithGui"><rect fill="#F1F1F1" height="48" id="AnyDataWithGui" rx="2.5" ry="2.5" style="stroke:#181818;stroke-width:0.5;" width="142" x="1191.5" y="552.42"/><ellipse cx="1206.5" cy="568.42" fill="#ADD1B2" rx="11" ry="11" style="stroke:#181818;stroke-width:1.0;"/><path d="M1208.9731,574.5631 Q1208.3921,574.8619 1207.7529,575.0113 Q1207.1138,575.1607 1206.4082,575.1607 Q1203.9014,575.1607 1202.5815,573.5089 Q1201.2617,571.857 1201.2617,568.7359 Q1201.2617,565.6065 1202.5815,563.9547 Q1203.9014,562.3028 1206.4082,562.3028 Q1207.1138,562.3028 1207.7612,562.4522 Q1208.4087,562.6016 1208.9731,562.9005 L1208.9731,565.6231 Q1208.3423,565.0421 1207.7488,564.7723 Q1207.1553,564.5025 1206.5244,564.5025 Q1205.1797,564.5025 1204.4949,565.5692 Q1203.8101,566.6358 1203.8101,568.7359 Q1203.8101,570.8277 1204.4949,571.8944 Q1205.1797,572.961 1206.5244,572.961 Q1207.1553,572.961 1207.7488,572.6912 Q1208.3423,572.4215 1208.9731,571.8404 Z " fill="#000000"/><text fill="#000000" font-family="sans-serif" font-size="14" lengthAdjust="spacing" textLength="110" x="1220.5" y="573.711">AnyDataWithGui</text><line style="stroke:#181818;stroke-width:0.5;" x1="1192.5" x2="1332.5" y1="584.42" y2="584.42"/><line style="stroke:#181818;stroke-width:0.5;" x1="1192.5" x2="1332.5" y1="592.42" y2="592.42"/></g><!--class FunctionWithGui--><g id="elem_FunctionWithGui"><rect fill="#F1F1F1" height="48" id="FunctionWithGui" rx="2.5" ry="2.5" style="stroke:#181818;stroke-width:0.5;" width="145" x="1012" y="552.42"/><ellipse cx="1027" cy="568.42" fill="#ADD1B2" rx="11" ry="11" style="stroke:#181818;stroke-width:1.0;"/><path d="M1029.4731,574.5631 Q1028.8921,574.8619 1028.2529,575.0113 Q1027.6138,575.1607 1026.9082,575.1607 Q1024.4014,575.1607 1023.0815,573.5089 Q1021.7617,571.857 1021.7617,568.7359 Q1021.7617,565.6065 1023.0815,563.9547 Q1024.4014,562.3028 1026.9082,562.3028 Q1027.6138,562.3028 1028.2612,562.4522 Q1028.9087,562.6016 1029.4731,562.9005 L1029.4731,565.6231 Q1028.8423,565.0421 1028.2488,564.7723 Q1027.6553,564.5025 1027.0244,564.5025 Q1025.6797,564.5025 1024.9949,565.5692 Q1024.3101,566.6358 1024.3101,568.7359 Q1024.3101,570.8277 1024.9949,571.8944 Q1025.6797,572.961 1027.0244,572.961 Q1027.6553,572.961 1028.2488,572.6912 Q1028.8423,572.4215 1029.4731,571.8404 Z " fill="#000000"/><text fill="#000000" font-family="sans-serif" font-size="14" lengthAdjust="spacing" textLength="113" x="1041" y="573.711">FunctionWithGui</text><line style="stroke:#181818;stroke-width:0.5;" x1="1013" x2="1156" y1="584.42" y2="584.42"/><line style="stroke:#181818;stroke-width:0.5;" x1="1013" x2="1156" y1="592.42" y2="592.42"/></g><g id="elem_GMN7"><path d="M6,6 L6,92.5527 L337,92.5527 L337,16 L327,6 L6,6 " fill="#FEFFDD" style="stroke:#181818;stroke-width:0.5;"/><path d="M327,6 L327,16 L337,16 L327,6 " fill="#FEFFDD" style="stroke:#181818;stroke-width:1.0;"/><text fill="#000000" font-family="sans-serif" font-size="13" lengthAdjust="spacing" textLength="310" x="12" y="23.5684">This package contains a registry of GUI factories,</text><text fill="#000000" font-family="sans-serif" font-size="13" lengthAdjust="spacing" textLength="280" x="12" y="38.8789">able to emit GUI widgets for many data type.</text><text fill="#000000" font-family="sans-serif" font-size="13" lengthAdjust="spacing" textLength="4" x="12" y="54.1895"> </text><text fill="#000000" font-family="sans-serif" font-size="13" lengthAdjust="spacing" textLength="186" x="12" y="69.5">Consequently, it can also add</text><text fill="#000000" font-family="sans-serif" font-size="13" lengthAdjust="spacing" textLength="224" x="12" y="84.8105">input/output widgets to a function.</text></g><!--link free_functions to CompositeWithGui--><g id="link_free_functions_CompositeWithGui"><path codeLine="39" d="M453.01,454.72 C471.23,526.08 491.2559,604.5165 504.7659,657.4365 " fill="none" id="free_functions-to-CompositeWithGui" style="stroke:#181818;stroke-width:1.0;stroke-dasharray:7.0,7.0;"/><polygon fill="#181818" points="506.25,663.25,507.8995,653.5403,505.0132,658.4054,500.1481,655.5191,506.25,663.25" style="stroke:#181818;stroke-width:1.0;"/><text fill="#000000" font-family="sans-serif" font-size="13" lengthAdjust="spacing" textLength="29" x="496.5" y="581.4884">uses</text></g><!--link GMN7 to fiat_togui--><g id="link_GMN7_fiat_togui"><path d="M171.5,92.95 C171.5,102.3488 171.5,112.8947 171.5,124.1632 C171.5,129.7974 171.5,135.6123 171.5,141.5548 C171.5,143.0404 171.5,144.534 171.5,146.0347 C171.5,146.4099 171.5,146.7855 171.5,147.1616 " fill="none" id="GMN7-fiat_togui" style="stroke:#181818;stroke-width:1.0;stroke-dasharray:7.0,7.0;"/></g><!--link CompositeWithGui to AnyDataWithGui--><g id="link_CompositeWithGui_AnyDataWithGui"><path codeLine="49" d="M689.73,708 C824.14,698.47 1014.95,676.24 1174.5,624.42 C1192.13,618.69 1194.7497,618.4496 1210.0397,609.7396 " fill="none" id="CompositeWithGui-to-AnyDataWithGui" style="stroke:#181818;stroke-width:1.0;"/><polygon fill="none" points="1225.68,600.83,1207.0698,604.5261,1213.0095,614.953,1225.68,600.83" style="stroke:#181818;stroke-width:1.0;"/></g><!--link PrimitiveWithGui to AnyDataWithGui--><g id="link_PrimitiveWithGui_AnyDataWithGui"><path codeLine="50" d="M929.33,379.66 C1002.6,414.05 1095.77,460.71 1174.5,509.42 C1195.29,522.28 1203.169,527.6177 1219.969,540.8977 " fill="none" id="PrimitiveWithGui-to-AnyDataWithGui" style="stroke:#181818;stroke-width:1.0;"/><polygon fill="none" points="1234.09,552.06,1223.6898,536.1907,1216.2482,545.6047,1234.09,552.06" style="stroke:#181818;stroke-width:1.0;"/></g><!--link FunctionWithGui to free_functions--><g id="link_FunctionWithGui_free_functions"><path codeLine="51" d="M1048.6,551.99 C1023.59,536.96 988.85,518.61 955.5,509.42 C902.69,494.86 886.6,510.04 832.5,501.42 C749.58,488.19 727.34,485.91 649.5,454.42 C643.96,452.17 643.899,452.2203 638.309,449.7803 " fill="none" id="FunctionWithGui-to-free_functions" style="stroke:#181818;stroke-width:1.0;stroke-dasharray:7.0,7.0;"/><polygon fill="#181818" points="632.81,447.38,639.4583,454.6464,637.3925,449.3802,642.6586,447.3144,632.81,447.38" style="stroke:#181818;stroke-width:1.0;"/><text fill="#000000" font-family="sans-serif" font-size="13" lengthAdjust="spacing" textLength="293" x="833.5" y="497.9884">uses add_input_outputs_to_function_with_gui</text></g><!--SRC=[KypCIyufJKbLICv9B2wEJybCJ2zAp2tMJyjCB8aloKylpTGhACtD0G00]--></g></svg>