<svg xmlns="http://www.w3.org/2000/svg" xmlns:xlink="http://www.w3.org/1999/xlink" contentStyleType="text/css" height="679px" preserveAspectRatio="none" style="width:853px;height:679px;background:#FFFFFF;" version="1.1" viewBox="0 0 853 679" width="853px" zoomAndPan="magnify"><defs/><g><!--cluster fiat_nodes--><g id="cluster_fiat_nodes"><path d="M166.5,86.31 L242.5,86.31 A3.75,3.75 0 0 1 245,88.81 L252,108.7983 L732.5,108.7983 A2.5,2.5 0 0 1 735,111.2983 L735,529.67 A2.5,2.5 0 0 1 732.5,532.17 L166.5,532.17 A2.5,2.5 0 0 1 164,529.67 L164,88.81 A2.5,2.5 0 0 1 166.5,86.31 " fill="none" style="stroke:#000000;stroke-width:1.5;"/><line style="stroke:#000000;stroke-width:1.5;" x1="164" x2="252" y1="108.7983" y2="108.7983"/><text fill="#000000" font-family="sans-serif" font-size="14" font-weight="bold" lengthAdjust="spacing" textLength="75" x="168" y="101.8452">fiat_nodes</text></g><!--cluster fiat_core--><g id="cluster_fiat_core"><path d="M322.5,573.17 L385.5,573.17 A3.75,3.75 0 0 1 388,575.67 L395,595.6583 L843.5,595.6583 A2.5,2.5 0 0 1 846,598.1583 L846,669.67 A2.5,2.5 0 0 1 843.5,672.17 L322.5,672.17 A2.5,2.5 0 0 1 320,669.67 L320,575.67 A2.5,2.5 0 0 1 322.5,573.17 " fill="none" style="stroke:#000000;stroke-width:1.5;"/><line style="stroke:#000000;stroke-width:1.5;" x1="320" x2="395" y1="595.6583" y2="595.6583"/><text fill="#000000" font-family="sans-serif" font-size="14" font-weight="bold" lengthAdjust="spacing" textLength="62" x="324" y="588.7052">fiat_core</text></g><!--class FunctionNodeLinkGui--><g id="elem_FunctionNodeLinkGui"><rect codeLine="3" fill="#F1F1F1" height="171.418" id="FunctionNodeLinkGui" rx="2.5" ry="2.5" style="stroke:#181818;stroke-width:0.5;" width="240" x="196" y="336.75"/><ellipse cx="238.45" cy="352.75" fill="#ADD1B2" rx="11" ry="11" style="stroke:#181818;stroke-width:1.0;"/><path d="M240.9231,358.8931 Q240.3421,359.1919 239.7029,359.3413 Q239.0638,359.4907 238.3582,359.4907 Q235.8514,359.4907 234.5315,357.8389 Q233.2117,356.187 233.2117,353.0659 Q233.2117,349.9365 234.5315,348.2847 Q235.8514,346.6328 238.3582,346.6328 Q239.0638,346.6328 239.7112,346.7822 Q240.3587,346.9316 240.9231,347.2305 L240.9231,349.9531 Q240.2923,349.3721 239.6988,349.1023 Q239.1053,348.8325 238.4744,348.8325 Q237.1297,348.8325 236.4449,349.8992 Q235.7601,350.9658 235.7601,353.0659 Q235.7601,355.1577 236.4449,356.2244 Q237.1297,357.291 238.4744,357.291 Q239.1053,357.291 239.6988,357.0212 Q240.2923,356.7515 240.9231,356.1704 Z " fill="#000000"/><text fill="#000000" font-family="sans-serif" font-size="14" lengthAdjust="spacing" textLength="147" x="258.55" y="358.041">FunctionNodeLinkGui</text><line style="stroke:#181818;stroke-width:0.5;" x1="197" x2="435" y1="368.75" y2="368.75"/><text fill="#000000" font-family="sans-serif" font-size="14" lengthAdjust="spacing" textLength="159" x="202" y="386.2852">The GUI representation</text><text fill="#000000" font-family="sans-serif" font-size="14" lengthAdjust="spacing" textLength="160" x="202" y="402.7734">for a FunctionNodeLink</text><line style="stroke:#181818;stroke-width:1.0;" x1="197" x2="435" y1="409.7266" y2="409.7266"/><ellipse cx="207" cy="423.4707" fill="none" rx="3" ry="3" style="stroke:#038048;stroke-width:1.0;"/><text fill="#000000" font-family="sans-serif" font-size="14" lengthAdjust="spacing" textLength="131" x="216" y="427.2617">function_node_link</text><line style="stroke:#181818;stroke-width:1.0;" x1="197" x2="435" y1="434.2148" y2="434.2148"/><text fill="#000000" font-family="sans-serif" font-size="14" lengthAdjust="spacing" textLength="214" x="216" y="451.75">(specific to imgui-node-editor)</text><ellipse cx="207" cy="464.4473" fill="none" rx="3" ry="3" style="stroke:#038048;stroke-width:1.0;"/><text fill="#000000" font-family="sans-serif" font-size="14" lengthAdjust="spacing" textLength="115" x="216" y="468.2383">link_id: ed.LinkId</text><ellipse cx="207" cy="480.9355" fill="none" rx="3" ry="3" style="stroke:#038048;stroke-width:1.0;"/><text fill="#000000" font-family="sans-serif" font-size="14" lengthAdjust="spacing" textLength="114" x="216" y="484.7266">start_id: ed.PinId</text><ellipse cx="207" cy="497.4238" fill="none" rx="3" ry="3" style="stroke:#038048;stroke-width:1.0;"/><text fill="#000000" font-family="sans-serif" font-size="14" lengthAdjust="spacing" textLength="109" x="216" y="501.2148">end_id: ed.PinId</text></g><!--class FunctionNodeGui--><g id="elem_FunctionNodeGui"><rect codeLine="17" fill="#F1F1F1" height="171.418" id="FunctionNodeGui" rx="2.5" ry="2.5" style="stroke:#181818;stroke-width:0.5;" width="240" x="471" y="336.75"/><ellipse cx="527.25" cy="352.75" fill="#ADD1B2" rx="11" ry="11" style="stroke:#181818;stroke-width:1.0;"/><path d="M529.7231,358.8931 Q529.1421,359.1919 528.5029,359.3413 Q527.8638,359.4907 527.1582,359.4907 Q524.6514,359.4907 523.3315,357.8389 Q522.0117,356.187 522.0117,353.0659 Q522.0117,349.9365 523.3315,348.2847 Q524.6514,346.6328 527.1582,346.6328 Q527.8638,346.6328 528.5112,346.7822 Q529.1587,346.9316 529.7231,347.2305 L529.7231,349.9531 Q529.0923,349.3721 528.4988,349.1023 Q527.9053,348.8325 527.2744,348.8325 Q525.9297,348.8325 525.2449,349.8992 Q524.5601,350.9658 524.5601,353.0659 Q524.5601,355.1577 525.2449,356.2244 Q525.9297,357.291 527.2744,357.291 Q527.9053,357.291 528.4988,357.0212 Q529.0923,356.7515 529.7231,356.1704 Z " fill="#000000"/><text fill="#000000" font-family="sans-serif" font-size="14" lengthAdjust="spacing" textLength="119" x="547.75" y="358.041">FunctionNodeGui</text><line style="stroke:#181818;stroke-width:0.5;" x1="472" x2="710" y1="368.75" y2="368.75"/><text fill="#000000" font-family="sans-serif" font-size="14" lengthAdjust="spacing" textLength="159" x="477" y="386.2852">The GUI representation</text><text fill="#000000" font-family="sans-serif" font-size="14" lengthAdjust="spacing" textLength="132" x="477" y="402.7734">for a FunctionNode</text><line style="stroke:#181818;stroke-width:1.0;" x1="472" x2="710" y1="409.7266" y2="409.7266"/><text fill="#000000" font-family="sans-serif" font-size="14" lengthAdjust="spacing" textLength="99" x="477" y="427.2617">function_node</text><line style="stroke:#181818;stroke-width:1.0;" x1="472" x2="710" y1="434.2148" y2="434.2148"/><text fill="#000000" font-family="sans-serif" font-size="14" lengthAdjust="spacing" textLength="214" x="491" y="451.75">(specific to imgui-node-editor)</text><ellipse cx="482" cy="464.4473" fill="none" rx="3" ry="3" style="stroke:#038048;stroke-width:1.0;"/><text fill="#000000" font-family="sans-serif" font-size="14" lengthAdjust="spacing" textLength="133" x="491" y="468.2383">node_id: ed.NodeId</text><ellipse cx="482" cy="480.9355" fill="none" rx="3" ry="3" style="stroke:#038048;stroke-width:1.0;"/><text fill="#000000" font-family="sans-serif" font-size="14" lengthAdjust="spacing" textLength="197" x="491" y="484.7266">pins_input: Dict[str, ed.PinId]</text><ellipse cx="482" cy="497.4238" fill="none" rx="3" ry="3" style="stroke:#038048;stroke-width:1.0;"/><text fill="#000000" font-family="sans-serif" font-size="14" lengthAdjust="spacing" textLength="207" x="491" y="501.2148">pins_output: Dict[str, ed.PinId]</text></g><!--class FunctionsGraphGui--><g id="elem_FunctionsGraphGui"><rect codeLine="30" fill="#F1F1F1" height="130.4414" id="FunctionsGraphGui" rx="2.5" ry="2.5" style="stroke:#181818;stroke-width:0.5;" width="332" x="379" y="129.31"/><ellipse cx="474.75" cy="145.31" fill="#ADD1B2" rx="11" ry="11" style="stroke:#181818;stroke-width:1.0;"/><path d="M477.2231,151.4531 Q476.6421,151.7519 476.0029,151.9013 Q475.3638,152.0507 474.6582,152.0507 Q472.1514,152.0507 470.8315,150.3989 Q469.5117,148.747 469.5117,145.6259 Q469.5117,142.4965 470.8315,140.8447 Q472.1514,139.1928 474.6582,139.1928 Q475.3638,139.1928 476.0112,139.3422 Q476.6587,139.4916 477.2231,139.7905 L477.2231,142.5131 Q476.5923,141.9321 475.9988,141.6623 Q475.4053,141.3925 474.7744,141.3925 Q473.4297,141.3925 472.7449,142.4592 Q472.0601,143.5258 472.0601,145.6259 Q472.0601,147.7177 472.7449,148.7844 Q473.4297,149.851 474.7744,149.851 Q475.4053,149.851 475.9988,149.5812 Q476.5923,149.3115 477.2231,148.7304 Z " fill="#000000"/><text fill="#000000" font-family="sans-serif" font-size="14" lengthAdjust="spacing" textLength="132" x="495.25" y="150.601">FunctionsGraphGui</text><line style="stroke:#181818;stroke-width:0.5;" x1="380" x2="710" y1="161.31" y2="161.31"/><text fill="#000000" font-family="sans-serif" font-size="14" lengthAdjust="spacing" textLength="159" x="385" y="178.8452">The GUI representation</text><text fill="#000000" font-family="sans-serif" font-size="14" lengthAdjust="spacing" textLength="145" x="385" y="195.3334">for a FunctionsGraph</text><line style="stroke:#181818;stroke-width:1.0;" x1="380" x2="710" y1="202.2866" y2="202.2866"/><text fill="#000000" font-family="sans-serif" font-size="14" lengthAdjust="spacing" textLength="112" x="385" y="219.8217">functions_graph</text><text fill="#000000" font-family="sans-serif" font-size="14" lengthAdjust="spacing" textLength="295" x="385" y="236.31">function_nodes_gui: List[FunctionNodeGui]</text><text fill="#000000" font-family="sans-serif" font-size="14" lengthAdjust="spacing" textLength="320" x="385" y="252.7983">functions_links_gui: List[FunctionNodeLinkGui]</text></g><!--class FunctionNode--><g id="elem_FunctionNode"><rect fill="#F1F1F1" height="48" id="FunctionNode" rx="2.5" ry="2.5" style="stroke:#181818;stroke-width:0.5;" width="128" x="527" y="608.17"/><ellipse cx="542" cy="624.17" fill="#ADD1B2" rx="11" ry="11" style="stroke:#181818;stroke-width:1.0;"/><path d="M544.4731,630.3131 Q543.8921,630.6119 543.2529,630.7613 Q542.6138,630.9107 541.9082,630.9107 Q539.4014,630.9107 538.0815,629.2589 Q536.7617,627.607 536.7617,624.4859 Q536.7617,621.3565 538.0815,619.7047 Q539.4014,618.0528 541.9082,618.0528 Q542.6138,618.0528 543.2612,618.2022 Q543.9087,618.3516 544.4731,618.6505 L544.4731,621.3731 Q543.8423,620.7921 543.2488,620.5223 Q542.6553,620.2525 542.0244,620.2525 Q540.6797,620.2525 539.9949,621.3192 Q539.3101,622.3858 539.3101,624.4859 Q539.3101,626.5777 539.9949,627.6444 Q540.6797,628.711 542.0244,628.711 Q542.6553,628.711 543.2488,628.4412 Q543.8423,628.1715 544.4731,627.5904 Z " fill="#000000"/><text fill="#000000" font-family="sans-serif" font-size="14" lengthAdjust="spacing" textLength="96" x="556" y="629.461">FunctionNode</text><line style="stroke:#181818;stroke-width:0.5;" x1="528" x2="654" y1="640.17" y2="640.17"/><line style="stroke:#181818;stroke-width:0.5;" x1="528" x2="654" y1="648.17" y2="648.17"/></g><!--class FunctionsGraph--><g id="elem_FunctionsGraph"><rect fill="#F1F1F1" height="48" id="FunctionsGraph" rx="2.5" ry="2.5" style="stroke:#181818;stroke-width:0.5;" width="141" x="689.5" y="608.17"/><ellipse cx="704.5" cy="624.17" fill="#ADD1B2" rx="11" ry="11" style="stroke:#181818;stroke-width:1.0;"/><path d="M706.9731,630.3131 Q706.3921,630.6119 705.7529,630.7613 Q705.1138,630.9107 704.4082,630.9107 Q701.9014,630.9107 700.5815,629.2589 Q699.2617,627.607 699.2617,624.4859 Q699.2617,621.3565 700.5815,619.7047 Q701.9014,618.0528 704.4082,618.0528 Q705.1138,618.0528 705.7612,618.2022 Q706.4087,618.3516 706.9731,618.6505 L706.9731,621.3731 Q706.3423,620.7921 705.7488,620.5223 Q705.1553,620.2525 704.5244,620.2525 Q703.1797,620.2525 702.4949,621.3192 Q701.8101,622.3858 701.8101,624.4859 Q701.8101,626.5777 702.4949,627.6444 Q703.1797,628.711 704.5244,628.711 Q705.1553,628.711 705.7488,628.4412 Q706.3423,628.1715 706.9731,627.5904 Z " fill="#000000"/><text fill="#000000" font-family="sans-serif" font-size="14" lengthAdjust="spacing" textLength="109" x="718.5" y="629.461">FunctionsGraph</text><line style="stroke:#181818;stroke-width:0.5;" x1="690.5" x2="829.5" y1="640.17" y2="640.17"/><line style="stroke:#181818;stroke-width:0.5;" x1="690.5" x2="829.5" y1="648.17" y2="648.17"/></g><!--class FunctionNodeLink--><g id="elem_FunctionNodeLink"><rect fill="#F1F1F1" height="48" id="FunctionNodeLink" rx="2.5" ry="2.5" style="stroke:#181818;stroke-width:0.5;" width="156" x="336" y="608.17"/><ellipse cx="351" cy="624.17" fill="#ADD1B2" rx="11" ry="11" style="stroke:#181818;stroke-width:1.0;"/><path d="M353.4731,630.3131 Q352.8921,630.6119 352.2529,630.7613 Q351.6138,630.9107 350.9082,630.9107 Q348.4014,630.9107 347.0815,629.2589 Q345.7617,627.607 345.7617,624.4859 Q345.7617,621.3565 347.0815,619.7047 Q348.4014,618.0528 350.9082,618.0528 Q351.6138,618.0528 352.2612,618.2022 Q352.9087,618.3516 353.4731,618.6505 L353.4731,621.3731 Q352.8423,620.7921 352.2488,620.5223 Q351.6553,620.2525 351.0244,620.2525 Q349.6797,620.2525 348.9949,621.3192 Q348.3101,622.3858 348.3101,624.4859 Q348.3101,626.5777 348.9949,627.6444 Q349.6797,628.711 351.0244,628.711 Q351.6553,628.711 352.2488,628.4412 Q352.8423,628.1715 353.4731,627.5904 Z " fill="#000000"/><text fill="#000000" font-family="sans-serif" font-size="14" lengthAdjust="spacing" textLength="124" x="365" y="629.461">FunctionNodeLink</text><line style="stroke:#181818;stroke-width:0.5;" x1="337" x2="491" y1="640.17" y2="640.17"/><line style="stroke:#181818;stroke-width:0.5;" x1="337" x2="491" y1="648.17" y2="648.17"/></g><g id="elem_GMN8"><path d="M6,6 L6,31.3105 L338,31.3105 L338,16 L328,6 L6,6 " fill="#FEFFDD" style="stroke:#181818;stroke-width:0.5;"/><path d="M328,6 L328,16 L338,16 L328,6 " fill="#FEFFDD" style="stroke:#181818;stroke-width:1.0;"/><text fill="#000000" font-family="sans-serif" font-size="13" lengthAdjust="spacing" textLength="311" x="12" y="23.5684">The GUI representation, using imgui-node-editor</text></g><!--reverse link FunctionsGraphGui to FunctionNodeLinkGui--><g id="link_FunctionsGraphGui_FunctionNodeLinkGui"><path codeLine="39" d="M471.1381,268.3983 C447.0781,292.1383 427.99,310.98 402.35,336.26 " fill="none" id="FunctionsGraphGui-backto-FunctionNodeLinkGui" style="stroke:#181818;stroke-width:1.0;"/><polygon fill="#181818" points="479.68,259.97,472.5996,261.3368,471.1381,268.3983,478.2185,267.0314,479.68,259.97" style="stroke:#181818;stroke-width:1.0;"/><text fill="#000000" font-family="sans-serif" font-size="13" lengthAdjust="spacing" textLength="34" x="446" y="303.3184">many</text></g><!--reverse link FunctionsGraphGui to FunctionNodeGui--><g id="link_FunctionsGraphGui_FunctionNodeGui"><path codeLine="40" d="M560.5124,271.7291 C565.3424,295.4691 568.5,310.98 573.65,336.26 " fill="none" id="FunctionsGraphGui-backto-FunctionNodeGui" style="stroke:#181818;stroke-width:1.0;"/><polygon fill="#181818" points="558.12,259.97,555.3965,266.647,560.5124,271.7291,563.2359,265.0521,558.12,259.97" style="stroke:#181818;stroke-width:1.0;"/><text fill="#000000" font-family="sans-serif" font-size="13" lengthAdjust="spacing" textLength="34" x="567" y="303.3184">many</text></g><!--link GMN8 to fiat_nodes--><g id="link_GMN8_fiat_nodes"><path d="M172,31.61 C172,41.2775 172,55.9931 172,72.6867 C172,76.8601 172,81.1571 172,85.5298 " fill="none" id="GMN8-fiat_nodes" style="stroke:#181818;stroke-width:1.0;stroke-dasharray:7.0,7.0;"/></g><!--reverse link FunctionNodeGui to FunctionNode--><g id="link_FunctionNodeGui_FunctionNode"><path codeLine="46" d="M591,520.54 C591,556.62 591,583.82 591,607.95 " fill="none" id="FunctionNodeGui-backto-FunctionNode" style="stroke:#181818;stroke-width:1.0;"/><polygon fill="none" points="591,508.54,587,514.54,591,520.54,595,514.54,591,508.54" style="stroke:#181818;stroke-width:1.0;"/></g><!--reverse link FunctionsGraphGui to FunctionsGraph--><g id="link_FunctionsGraphGui_FunctionsGraph"><path codeLine="47" d="M667.5747,267.5153 C694.7447,288.4553 711.22,306.82 728,336.75 C778.28,426.45 769.53,555.69 763.29,607.95 " fill="none" id="FunctionsGraphGui-backto-FunctionsGraph" style="stroke:#181818;stroke-width:1.0;"/><polygon fill="none" points="658.07,260.19,660.3806,267.0209,667.5747,267.5153,665.2641,260.6844,658.07,260.19" style="stroke:#181818;stroke-width:1.0;"/></g><!--reverse link FunctionNodeLinkGui to FunctionNodeLink--><g id="link_FunctionNodeLinkGui_FunctionNodeLink"><path codeLine="48" d="M361.2597,519.393 C378.2797,555.473 391.66,583.82 403.04,607.95 " fill="none" id="FunctionNodeLinkGui-backto-FunctionNodeLink" style="stroke:#181818;stroke-width:1.0;"/><polygon fill="none" points="356.14,508.54,355.0822,515.6731,361.2597,519.393,362.3175,512.26,356.14,508.54" style="stroke:#181818;stroke-width:1.0;"/></g><!--SRC=[KypCIyufJKbLICv9B2wEJybCJ2zAp2tMJyjCB8dFoqz9BTOhACtD0G00]--></g></svg>