<svg xmlns="http://www.w3.org/2000/svg" xmlns:xlink="http://www.w3.org/1999/xlink" contentStyleType="text/css" height="638px" preserveAspectRatio="none" style="width:869px;height:638px;background:#FFFFFF;" version="1.1" viewBox="0 0 869 638" width="869px" zoomAndPan="magnify"><defs/><g><!--cluster fiat_runner--><g id="cluster_fiat_runner"><path d="M259,6 L339,6 A3.75,3.75 0 0 1 341.5,8.5 L348.5,28.4883 L632,28.4883 A2.5,2.5 0 0 1 634.5,30.9883 L634.5,628.98 A2.5,2.5 0 0 1 632,631.48 L259,631.48 A2.5,2.5 0 0 1 256.5,628.98 L256.5,8.5 A2.5,2.5 0 0 1 259,6 " fill="none" style="stroke:#000000;stroke-width:1.5;"/><line style="stroke:#000000;stroke-width:1.5;" x1="256.5" x2="348.5" y1="28.4883" y2="28.4883"/><text fill="#000000" font-family="sans-serif" font-size="14" font-weight="bold" lengthAdjust="spacing" textLength="79" x="260.5" y="21.5352">fiat_runner</text></g><!--cluster fiat_nodes--><g id="cluster_fiat_nodes"><path d="M669,499.75 L745,499.75 A3.75,3.75 0 0 1 747.5,502.25 L754.5,522.2383 L860,522.2383 A2.5,2.5 0 0 1 862.5,524.7383 L862.5,596.25 A2.5,2.5 0 0 1 860,598.75 L669,598.75 A2.5,2.5 0 0 1 666.5,596.25 L666.5,502.25 A2.5,2.5 0 0 1 669,499.75 " fill="none" style="stroke:#000000;stroke-width:1.5;"/><line style="stroke:#000000;stroke-width:1.5;" x1="666.5" x2="754.5" y1="522.2383" y2="522.2383"/><text fill="#000000" font-family="sans-serif" font-size="14" font-weight="bold" lengthAdjust="spacing" textLength="75" x="670.5" y="515.2852">fiat_nodes</text></g><!--class FiatlightGuiParams--><g id="elem_FiatlightGuiParams"><rect codeLine="4" fill="#F1F1F1" height="97.4648" id="FiatlightGuiParams" rx="2.5" ry="2.5" style="stroke:#181818;stroke-width:0.5;" width="323" x="288" y="510.02"/><ellipse cx="380.75" cy="526.02" fill="#ADD1B2" rx="11" ry="11" style="stroke:#181818;stroke-width:1.0;"/><path d="M383.2231,532.1631 Q382.6421,532.4619 382.0029,532.6113 Q381.3638,532.7607 380.6582,532.7607 Q378.1514,532.7607 376.8315,531.1089 Q375.5117,529.457 375.5117,526.3359 Q375.5117,523.2065 376.8315,521.5547 Q378.1514,519.9028 380.6582,519.9028 Q381.3638,519.9028 382.0112,520.0522 Q382.6587,520.2016 383.2231,520.5005 L383.2231,523.2231 Q382.5923,522.6421 381.9988,522.3723 Q381.4053,522.1025 380.7744,522.1025 Q379.4297,522.1025 378.7449,523.1692 Q378.0601,524.2358 378.0601,526.3359 Q378.0601,528.4277 378.7449,529.4944 Q379.4297,530.561 380.7744,530.561 Q381.4053,530.561 381.9988,530.2912 Q382.5923,530.0215 383.2231,529.4404 Z " fill="#000000"/><text fill="#000000" font-family="sans-serif" font-size="14" lengthAdjust="spacing" textLength="129" x="401.25" y="531.311">FiatlightGuiParams</text><line style="stroke:#181818;stroke-width:0.5;" x1="289" x2="610" y1="542.02" y2="542.02"/><ellipse cx="299" cy="555.7641" fill="none" rx="3" ry="3" style="stroke:#038048;stroke-width:1.0;"/><text fill="#000000" font-family="sans-serif" font-size="14" lengthAdjust="spacing" textLength="195" x="308" y="559.5552">show_image_inspector: bool</text><ellipse cx="299" cy="572.2524" fill="none" rx="3" ry="3" style="stroke:#038048;stroke-width:1.0;"/><text fill="#000000" font-family="sans-serif" font-size="14" lengthAdjust="spacing" textLength="297" x="308" y="576.0434">runner_params: hello_imgui.RunnerParams</text><ellipse cx="299" cy="588.7407" fill="none" rx="3" ry="3" style="stroke:#038048;stroke-width:1.0;"/><text fill="#000000" font-family="sans-serif" font-size="14" lengthAdjust="spacing" textLength="224" x="308" y="592.5317">addons: immapp.AddOnsParams</text><line style="stroke:#181818;stroke-width:0.5;" x1="289" x2="610" y1="599.4848" y2="599.4848"/></g><!--class FiatlightGui--><g id="elem_FiatlightGui"><rect codeLine="10" fill="#F1F1F1" height="154.9297" id="FiatlightGui" rx="2.5" ry="2.5" style="stroke:#181818;stroke-width:0.5;" width="220" x="345.5" y="294.09"/><ellipse cx="411.75" cy="310.09" fill="#ADD1B2" rx="11" ry="11" style="stroke:#181818;stroke-width:1.0;"/><path d="M414.2231,316.2331 Q413.6421,316.5319 413.0029,316.6813 Q412.3638,316.8307 411.6582,316.8307 Q409.1514,316.8307 407.8315,315.1789 Q406.5117,313.527 406.5117,310.4059 Q406.5117,307.2765 407.8315,305.6247 Q409.1514,303.9728 411.6582,303.9728 Q412.3638,303.9728 413.0112,304.1222 Q413.6587,304.2716 414.2231,304.5705 L414.2231,307.2931 Q413.5923,306.7121 412.9988,306.4423 Q412.4053,306.1725 411.7744,306.1725 Q410.4297,306.1725 409.7449,307.2392 Q409.0601,308.3058 409.0601,310.4059 Q409.0601,312.4977 409.7449,313.5644 Q410.4297,314.631 411.7744,314.631 Q412.4053,314.631 412.9988,314.3612 Q413.5923,314.0915 414.2231,313.5104 Z " fill="#000000"/><text fill="#000000" font-family="sans-serif" font-size="14" lengthAdjust="spacing" textLength="79" x="432.25" y="315.381">FiatlightGui</text><line style="stroke:#181818;stroke-width:0.5;" x1="346.5" x2="564.5" y1="326.09" y2="326.09"/><text fill="#000000" font-family="sans-serif" font-size="14" lengthAdjust="spacing" textLength="135" x="351.5" y="343.6252">Runs an application</text><text fill="#000000" font-family="sans-serif" font-size="14" lengthAdjust="spacing" textLength="208" x="351.5" y="360.1134">that presents a function graph</text><text fill="#000000" font-family="sans-serif" font-size="14" lengthAdjust="spacing" textLength="92" x="351.5" y="376.6017">for a Fiatlight</text><line style="stroke:#181818;stroke-width:1.0;" x1="346.5" x2="564.5" y1="383.5548" y2="383.5548"/><ellipse cx="356.5" cy="397.299" fill="none" rx="3" ry="3" style="stroke:#038048;stroke-width:1.0;"/><text fill="#000000" font-family="sans-serif" font-size="14" lengthAdjust="spacing" textLength="141" x="365.5" y="401.09">functions_graph_gui</text><ellipse cx="356.5" cy="413.7873" fill="none" rx="3" ry="3" style="stroke:#038048;stroke-width:1.0;"/><text fill="#000000" font-family="sans-serif" font-size="14" lengthAdjust="spacing" textLength="51" x="365.5" y="417.5783">params</text><line style="stroke:#181818;stroke-width:1.0;" x1="346.5" x2="564.5" y1="424.5314" y2="424.5314"/><ellipse cx="356.5" cy="438.2755" fill="#84BE84" rx="3" ry="3" style="stroke:#038048;stroke-width:1.0;"/><text fill="#000000" font-family="sans-serif" font-size="14" lengthAdjust="spacing" textLength="34" x="365.5" y="442.0666">run()</text></g><!--class Functions--><g id="elem_Functions"><rect codeLine="23" fill="#F1F1F1" height="106.0859" id="Functions" rx="2.5" ry="2.5" style="stroke:#181818;stroke-width:0.5;" width="304" x="303.5" y="49"/><ellipse cx="408.25" cy="69.3105" fill="#ADD1B2" rx="11" ry="11" style="stroke:#181818;stroke-width:1.0;"/><path d="M410.7231,75.4536 Q410.1421,75.7524 409.5029,75.9019 Q408.8638,76.0513 408.1582,76.0513 Q405.6514,76.0513 404.3315,74.3994 Q403.0117,72.7476 403.0117,69.6265 Q403.0117,66.4971 404.3315,64.8452 Q405.6514,63.1934 408.1582,63.1934 Q408.8638,63.1934 409.5112,63.3428 Q410.1587,63.4922 410.7231,63.791 L410.7231,66.5137 Q410.0923,65.9326 409.4988,65.6628 Q408.9053,65.3931 408.2744,65.3931 Q406.9297,65.3931 406.2449,66.4597 Q405.5601,67.5264 405.5601,69.6265 Q405.5601,71.7183 406.2449,72.7849 Q406.9297,73.8516 408.2744,73.8516 Q408.9053,73.8516 409.4988,73.5818 Q410.0923,73.312 410.7231,72.731 Z " fill="#000000"/><text fill="#000000" font-family="sans-serif" font-size="12" font-style="italic" lengthAdjust="spacing" textLength="90" x="426.75" y="65.6016">«free functions»</text><text fill="#000000" font-family="sans-serif" font-size="14" lengthAdjust="spacing" textLength="67" x="438.25" y="81.668">Functions</text><line style="stroke:#181818;stroke-width:0.5;" x1="304.5" x2="606.5" y1="89.6211" y2="89.6211"/><line style="stroke:#181818;stroke-width:0.5;" x1="304.5" x2="606.5" y1="97.6211" y2="97.6211"/><ellipse cx="314.5" cy="111.3652" fill="#84BE84" rx="3" ry="3" style="stroke:#038048;stroke-width:1.0;"/><text fill="#000000" font-family="sans-serif" font-size="14" lengthAdjust="spacing" textLength="179" x="323.5" y="115.1563">fiat_run(function, params)</text><ellipse cx="314.5" cy="127.8535" fill="#84BE84" rx="3" ry="3" style="stroke:#038048;stroke-width:1.0;"/><text fill="#000000" font-family="sans-serif" font-size="14" lengthAdjust="spacing" textLength="278" x="323.5" y="131.6445">fiat_run_composition(functions, params)</text><ellipse cx="314.5" cy="144.3418" fill="#84BE84" rx="3" ry="3" style="stroke:#038048;stroke-width:1.0;"/><text fill="#000000" font-family="sans-serif" font-size="14" lengthAdjust="spacing" textLength="211" x="323.5" y="148.1328">fiat_run_graph(graph, params)</text></g><!--class FunctionsGraphGui--><g id="elem_FunctionsGraphGui"><rect fill="#F1F1F1" height="48" id="FunctionsGraphGui" rx="2.5" ry="2.5" style="stroke:#181818;stroke-width:0.5;" width="164" x="682.5" y="534.75"/><ellipse cx="697.5" cy="550.75" fill="#ADD1B2" rx="11" ry="11" style="stroke:#181818;stroke-width:1.0;"/><path d="M699.9731,556.8931 Q699.3921,557.1919 698.7529,557.3413 Q698.1138,557.4907 697.4082,557.4907 Q694.9014,557.4907 693.5815,555.8389 Q692.2617,554.187 692.2617,551.0659 Q692.2617,547.9365 693.5815,546.2847 Q694.9014,544.6328 697.4082,544.6328 Q698.1138,544.6328 698.7612,544.7822 Q699.4087,544.9316 699.9731,545.2305 L699.9731,547.9531 Q699.3423,547.3721 698.7488,547.1023 Q698.1553,546.8325 697.5244,546.8325 Q696.1797,546.8325 695.4949,547.8992 Q694.8101,548.9658 694.8101,551.0659 Q694.8101,553.1577 695.4949,554.2244 Q696.1797,555.291 697.5244,555.291 Q698.1553,555.291 698.7488,555.0212 Q699.3423,554.7515 699.9731,554.1704 Z " fill="#000000"/><text fill="#000000" font-family="sans-serif" font-size="14" lengthAdjust="spacing" textLength="132" x="711.5" y="556.041">FunctionsGraphGui</text><line style="stroke:#181818;stroke-width:0.5;" x1="683.5" x2="845.5" y1="566.75" y2="566.75"/><line style="stroke:#181818;stroke-width:0.5;" x1="683.5" x2="845.5" y1="574.75" y2="574.75"/></g><g id="elem_GMN8"><path d="M6,81.73 L6,122.3511 L229,122.3511 L229,91.73 L219,81.73 L6,81.73 " fill="#FEFFDD" style="stroke:#181818;stroke-width:0.5;"/><path d="M219,81.73 L219,91.73 L229,91.73 L219,81.73 " fill="#FEFFDD" style="stroke:#181818;stroke-width:1.0;"/><text fill="#000000" font-family="sans-serif" font-size="13" lengthAdjust="spacing" textLength="190" x="12" y="99.2984">This module is the entry point</text><text fill="#000000" font-family="sans-serif" font-size="13" lengthAdjust="spacing" textLength="202" x="12" y="114.6089">for any fiatlight GUI application.</text></g><!--reverse link FiatlightGui to FiatlightGuiParams--><g id="link_FiatlightGui_FiatlightGuiParams"><path codeLine="21" d="M452.6214,461.4737 C451.9614,481.8437 451.65,491.27 451.06,509.63 " fill="none" id="FiatlightGui-backto-FiatlightGuiParams" style="stroke:#181818;stroke-width:1.0;"/><polygon fill="#181818" points="453.01,449.48,448.8178,455.3473,452.6214,461.4737,456.8136,455.6064,453.01,449.48" style="stroke:#181818;stroke-width:1.0;"/></g><!--link Functions to FiatlightGui--><g id="link_Functions_FiatlightGui"><path codeLine="29" d="M455.5,155.57 C455.5,194.98 455.5,249.53 455.5,293.82 " fill="none" id="Functions-FiatlightGui" style="stroke:#181818;stroke-width:1.0;stroke-dasharray:7.0,7.0;"/><text fill="#000000" font-family="sans-serif" font-size="13" lengthAdjust="spacing" textLength="29" x="456.5" y="229.6584">uses</text></g><!--link GMN8 to fiat_runner--><g id="link_GMN8_fiat_runner"><path d="M229.47,102.04 C235.17,102.04 240.8725,102.04 246.575,102.04 C249.4262,102.04 252.2775,102.04 255.1284,102.04 C255.4848,102.04 255.8412,102.04 256.1975,102.04 C256.2866,102.04 256.3757,102.04 256.4648,102.04 " fill="none" id="GMN8-fiat_runner" style="stroke:#181818;stroke-width:1.0;stroke-dasharray:7.0,7.0;"/></g><!--reverse link FiatlightGui to FunctionsGraphGui--><g id="link_FiatlightGui_FunctionsGraphGui"><path codeLine="36" d="M576.043,444.7988 C631.673,478.1388 685.38,510.33 725.39,534.31 " fill="none" id="FiatlightGui-backto-FunctionsGraphGui" style="stroke:#181818;stroke-width:1.0;"/><polygon fill="#181818" points="565.75,438.63,568.8402,445.1454,576.043,444.7988,572.9528,438.2834,565.75,438.63" style="stroke:#181818;stroke-width:1.0;"/></g><!--SRC=[KypCIyufJKbLICv9B2wEJybCJ2zAp2tMJyjCB8alAitBIotIAoZDpG40]--></g></svg>